<svg id="visual" viewBox="0 0 1300 800" width="1300" height="800" xmlns="http://www.w3.org/2000/svg" xmlns:xlink="http://www.w3.org/1999/xlink" version="1.1"><g stroke-width="1" stroke-linejoin="bevel"><path d="M706 333L587 226L555 422Z" fill="#1d4e6b" stroke="#1d4e6b"></path><path d="M587 226L498.5 413L555 422Z" fill="#205a7a" stroke="#205a7a"></path><path d="M737.5 88L558.5 184L587 226Z" fill="#1d4e6b" stroke="#1d4e6b"></path><path d="M587 226L558.5 184L498.5 413Z" fill="#0c2435" stroke="#0c2435"></path><path d="M494.5 570L724.5 525L555 422Z" fill="#297ea6" stroke="#297ea6"></path><path d="M555 422L724.5 525L706 333Z" fill="#297ea6" stroke="#297ea6"></path><path d="M498.5 413L494.5 570L555 422Z" fill="#0c2435" stroke="#0c2435"></path><path d="M291 440L388.5 503L498.5 413Z" fill="#277297" stroke="#277297"></path><path d="M498.5 413L388.5 503L494.5 570Z" fill="#277297" stroke="#277297"></path><path d="M902.5 282L737.5 88L706 333Z" fill="#0c2435" stroke="#0c2435"></path><path d="M706 333L737.5 88L587 226Z" fill="#0c2435" stroke="#0c2435"></path><path d="M724.5 525L902.5 282L706 333Z" fill="#19435d" stroke="#19435d"></path><path d="M245 400L291 440L498.5 413Z" fill="#297ea6" stroke="#297ea6"></path><path d="M737.5 88L648 0L558.5 184Z" fill="#00101c" stroke="#00101c"></path><path d="M242 183L245 400L498.5 413Z" fill="#297ea6" stroke="#297ea6"></path><path d="M648 0L524.5 0L558.5 184Z" fill="#0c2435" stroke="#0c2435"></path><path d="M494.5 570L610 687L724.5 525Z" fill="#112e42" stroke="#112e42"></path><path d="M1006 392L987 314L902.5 282Z" fill="#081a28" stroke="#081a28"></path><path d="M494.5 800L610 687L494.5 570Z" fill="#19435d" stroke="#19435d"></path><path d="M312 572L494.5 570L388.5 503Z" fill="#277297" stroke="#277297"></path><path d="M242 183L498.5 413L558.5 184Z" fill="#1d4e6b" stroke="#1d4e6b"></path><path d="M610 687L725.5 681L724.5 525Z" fill="#297ea6" stroke="#297ea6"></path><path d="M902.5 282L947 176L737.5 88Z" fill="#081a28" stroke="#081a28"></path><path d="M737.5 88L799.5 0L648 0Z" fill="#00101c" stroke="#00101c"></path><path d="M220.5 523L312 572L291 440Z" fill="#0c2435" stroke="#0c2435"></path><path d="M291 440L312 572L388.5 503Z" fill="#1d4e6b" stroke="#1d4e6b"></path><path d="M947 176L799.5 0L737.5 88Z" fill="#205a7a" stroke="#205a7a"></path><path d="M902.5 282L987 314L947 176Z" fill="#246688" stroke="#246688"></path><path d="M1006 392L902.5 282L724.5 525Z" fill="#112e42" stroke="#112e42"></path><path d="M310 0L242 183L558.5 184Z" fill="#00101c" stroke="#00101c"></path><path d="M242 183L210.5 350L245 400Z" fill="#205a7a" stroke="#205a7a"></path><path d="M245 400L220.5 523L291 440Z" fill="#19435d" stroke="#19435d"></path><path d="M1046 552L1006 392L724.5 525Z" fill="#1d4e6b" stroke="#1d4e6b"></path><path d="M210.5 350L220.5 523L245 400Z" fill="#19435d" stroke="#19435d"></path><path d="M524.5 0L310 0L558.5 184Z" fill="#0c2435" stroke="#0c2435"></path><path d="M1046 552L1064.5 405L1006 392Z" fill="#00101c" stroke="#00101c"></path><path d="M1006 392L1064.5 405L987 314Z" fill="#1d4e6b" stroke="#1d4e6b"></path><path d="M987 314L1100.5 195L947 176Z" fill="#1d4e6b" stroke="#1d4e6b"></path><path d="M610 687L644 800L725.5 681Z" fill="#205a7a" stroke="#205a7a"></path><path d="M725.5 681L1046 552L724.5 525Z" fill="#112e42" stroke="#112e42"></path><path d="M494.5 800L644 800L610 687Z" fill="#0c2435" stroke="#0c2435"></path><path d="M494.5 800L494.5 570L424 800Z" fill="#1d4e6b" stroke="#1d4e6b"></path><path d="M424 800L494.5 570L312 572Z" fill="#246688" stroke="#246688"></path><path d="M966 800L1046 552L725.5 681Z" fill="#0c2435" stroke="#0c2435"></path><path d="M644 800L776.5 800L725.5 681Z" fill="#246688" stroke="#246688"></path><path d="M178.5 800L424 800L312 572Z" fill="#246688" stroke="#246688"></path><path d="M1228.5 411L1100.5 195L1064.5 405Z" fill="#00101c" stroke="#00101c"></path><path d="M1064.5 405L1100.5 195L987 314Z" fill="#081a28" stroke="#081a28"></path><path d="M947 176L1029 0L799.5 0Z" fill="#277297" stroke="#277297"></path><path d="M94.5 0L86.5 215L242 183Z" fill="#1d4e6b" stroke="#1d4e6b"></path><path d="M242 183L86.5 215L210.5 350Z" fill="#277297" stroke="#277297"></path><path d="M0 578L106.5 646L220.5 523Z" fill="#246688" stroke="#246688"></path><path d="M1100.5 195L1029 0L947 176Z" fill="#1d4e6b" stroke="#1d4e6b"></path><path d="M0 362L220.5 523L210.5 350Z" fill="#205a7a" stroke="#205a7a"></path><path d="M220.5 523L106.5 646L312 572Z" fill="#112e42" stroke="#112e42"></path><path d="M776.5 800L966 800L725.5 681Z" fill="#1d4e6b" stroke="#1d4e6b"></path><path d="M86.5 215L0 362L210.5 350Z" fill="#246688" stroke="#246688"></path><path d="M310 0L94.5 0L242 183Z" fill="#205a7a" stroke="#205a7a"></path><path d="M86.5 215L0 202L0 362Z" fill="#00101c" stroke="#00101c"></path><path d="M94.5 0L0 202L86.5 215Z" fill="#0c2435" stroke="#0c2435"></path><path d="M1300 145L1131.5 0L1100.5 195Z" fill="#0c2435" stroke="#0c2435"></path><path d="M1100.5 195L1131.5 0L1029 0Z" fill="#277297" stroke="#277297"></path><path d="M1300 520L1228.5 411L1046 552Z" fill="#19435d" stroke="#19435d"></path><path d="M1046 552L1228.5 411L1064.5 405Z" fill="#277297" stroke="#277297"></path><path d="M106.5 646L178.5 800L312 572Z" fill="#0c2435" stroke="#0c2435"></path><path d="M0 362L0 578L220.5 523Z" fill="#297ea6" stroke="#297ea6"></path><path d="M106.5 646L0 729L178.5 800Z" fill="#1d4e6b" stroke="#1d4e6b"></path><path d="M966 800L1130.5 734L1046 552Z" fill="#15384f" stroke="#15384f"></path><path d="M94.5 0L0 0L0 202Z" fill="#112e42" stroke="#112e42"></path><path d="M1228.5 411L1300 288L1100.5 195Z" fill="#081a28" stroke="#081a28"></path><path d="M1300 520L1300 288L1228.5 411Z" fill="#19435d" stroke="#19435d"></path><path d="M1300 288L1300 145L1100.5 195Z" fill="#0c2435" stroke="#0c2435"></path><path d="M0 578L0 729L106.5 646Z" fill="#00101c" stroke="#00101c"></path><path d="M1130.5 734L1300 520L1046 552Z" fill="#19435d" stroke="#19435d"></path><path d="M966 800L1190.5 800L1130.5 734Z" fill="#1d4e6b" stroke="#1d4e6b"></path><path d="M1130.5 734L1300 739L1300 520Z" fill="#205a7a" stroke="#205a7a"></path><path d="M0 729L0 800L178.5 800Z" fill="#081a28" stroke="#081a28"></path><path d="M1300 145L1300 0L1131.5 0Z" fill="#19435d" stroke="#19435d"></path><path d="M1190.5 800L1300 739L1130.5 734Z" fill="#246688" stroke="#246688"></path><path d="M1190.5 800L1300 800L1300 739Z" fill="#112e42" stroke="#112e42"></path></g></svg>